<svg width="20" height="20" viewBox="0 0 20 20" fill="none" xmlns="http://www.w3.org/2000/svg">
<g id="Pointer Copy 26" filter="url(#filter0_d_69_4141)">
<mask id="path-1-outside-1_69_4141" maskUnits="userSpaceOnUse" x="2.5" y="1" width="15" height="16" fill="black">
<rect fill="white" x="2.5" y="1" width="15" height="16"/>
<path fill-rule="evenodd" clip-rule="evenodd" d="M8.49976 16C8.49976 16 6.29399 14.3013 5.51798 13C4.74196 11.6987 3.27145 10.041 3.53012 9C3.7888 7.95899 4.74196 7.63092 5.51798 8.41167C6.29399 9.19243 6.81674 10.8841 7.33408 10.6238C7.85143 10.3636 7.46342 7.89117 6.94607 6.45978C6.42873 5.02839 5.88936 2 6.94607 2C8.00279 2 8.00279 3 8.49976 4.5C8.99672 6 8.60871 8 8.99672 8C9.38473 8 9.53279 7.65063 9.53279 7C9.53279 6.82319 9.56725 6.67375 9.63721 6.54986C9.82468 6.21788 10.2671 6.0694 10.9846 6.0694C11.9698 6.0694 11.4815 8 11.9785 8C12.4755 8 12.4755 8.04101 12.4755 7C12.4755 5.95899 12.9363 6.0694 13.9302 6.0694C14.9241 6.0694 14.4429 8 14.9603 8C15.4776 8 14.9603 7 15.4572 7C15.9542 7 16.4512 7.15773 16.4512 9.5C16.4512 11.8423 16.7302 11.959 15.9542 13C15.1782 14.041 14.4633 15 14.4633 15C14.4633 15 14.4633 16 13.9302 16C13.3971 16 13.1221 15 12.4755 15C11.8288 15 11.4815 16 11.4815 16H8.49976ZM14.4633 14V10H13.4694V14H14.4633ZM11.4815 13C11.4815 13.2709 11.7121 14 11.9785 14C12.253 14 12.4755 13.2754 12.4755 13V11C12.4755 10.7291 12.2449 10 11.9785 10C11.704 10 11.4815 10.7246 11.4815 11V13ZM9.49368 13C9.49368 13.2709 9.72421 14 9.99064 14C10.2651 14 10.4876 13.2754 10.4876 13V11C10.4876 10.7291 10.2571 10 9.99064 10C9.71618 10 9.49368 10.7246 9.49368 11V13Z"/>
</mask>
<path fill-rule="evenodd" clip-rule="evenodd" d="M8.49976 16C8.49976 16 6.29399 14.3013 5.51798 13C4.74196 11.6987 3.27145 10.041 3.53012 9C3.7888 7.95899 4.74196 7.63092 5.51798 8.41167C6.29399 9.19243 6.81674 10.8841 7.33408 10.6238C7.85143 10.3636 7.46342 7.89117 6.94607 6.45978C6.42873 5.02839 5.88936 2 6.94607 2C8.00279 2 8.00279 3 8.49976 4.5C8.99672 6 8.60871 8 8.99672 8C9.38473 8 9.53279 7.65063 9.53279 7C9.53279 6.82319 9.56725 6.67375 9.63721 6.54986C9.82468 6.21788 10.2671 6.0694 10.9846 6.0694C11.9698 6.0694 11.4815 8 11.9785 8C12.4755 8 12.4755 8.04101 12.4755 7C12.4755 5.95899 12.9363 6.0694 13.9302 6.0694C14.9241 6.0694 14.4429 8 14.9603 8C15.4776 8 14.9603 7 15.4572 7C15.9542 7 16.4512 7.15773 16.4512 9.5C16.4512 11.8423 16.7302 11.959 15.9542 13C15.1782 14.041 14.4633 15 14.4633 15C14.4633 15 14.4633 16 13.9302 16C13.3971 16 13.1221 15 12.4755 15C11.8288 15 11.4815 16 11.4815 16H8.49976ZM14.4633 14V10H13.4694V14H14.4633ZM11.4815 13C11.4815 13.2709 11.7121 14 11.9785 14C12.253 14 12.4755 13.2754 12.4755 13V11C12.4755 10.7291 12.2449 10 11.9785 10C11.704 10 11.4815 10.7246 11.4815 11V13ZM9.49368 13C9.49368 13.2709 9.72421 14 9.99064 14C10.2651 14 10.4876 13.2754 10.4876 13V11C10.4876 10.7291 10.2571 10 9.99064 10C9.71618 10 9.49368 10.7246 9.49368 11V13Z" fill="white"/>
<path d="M8.49976 16L7.88959 16.7923L8.15932 17H8.49976V16ZM3.53012 9L4.50061 9.24115L3.53012 9ZM5.51798 8.41167L4.80872 9.11662L4.80872 9.11662L5.51798 8.41167ZM7.33408 10.6238L6.88469 9.73048L6.88469 9.73048L7.33408 10.6238ZM6.94607 6.45978L7.88653 6.11987L6.94607 6.45978ZM6.94607 2V1H6.94607L6.94607 2ZM8.99672 8L8.99672 9H8.99672L8.99672 8ZM9.53279 7H8.53279H9.53279ZM9.63721 6.54986L8.76645 6.05814L9.63721 6.54986ZM10.9846 6.0694V5.0694V6.0694ZM11.9785 8V7V8ZM12.4755 7L11.4755 7L12.4755 7ZM13.9302 6.0694V5.0694V6.0694ZM14.9603 8V9V8ZM15.4572 7V6V7ZM16.4512 9.5L15.4512 9.5L16.4512 9.5ZM15.9542 13L16.756 13.5977L15.9542 13ZM14.4633 15L13.6616 14.4023L13.4633 14.6683V15H14.4633ZM13.9302 16V15V16ZM12.4755 15V14V15ZM11.4815 16V17H12.1929L12.4262 16.328L11.4815 16ZM14.4633 14V15H15.4633V14H14.4633ZM14.4633 10H15.4633V9H14.4633V10ZM13.4694 10V9H12.4694V10H13.4694ZM13.4694 14H12.4694V15H13.4694V14ZM8.49976 16C9.10992 15.2077 9.10999 15.2078 9.11005 15.2078C9.11006 15.2078 9.11011 15.2079 9.11013 15.2079C9.11016 15.2079 9.11017 15.2079 9.11014 15.2079C9.11008 15.2078 9.10989 15.2077 9.10957 15.2075C9.10893 15.207 9.10777 15.2061 9.1061 15.2048C9.10277 15.2022 9.09741 15.198 9.09014 15.1923C9.0756 15.181 9.05343 15.1636 9.0245 15.1407C8.96661 15.0948 8.88185 15.0269 8.77722 14.9411C8.56748 14.769 8.28041 14.5269 7.9712 14.2468C7.32554 13.662 6.68129 12.9983 6.37685 12.4878L4.65911 13.5122C5.13067 14.3029 5.97732 15.1393 6.62855 15.7291C6.96777 16.0364 7.28065 16.3003 7.50874 16.4874C7.62303 16.5811 7.71665 16.6561 7.78242 16.7082C7.81532 16.7343 7.8413 16.7547 7.85945 16.7689C7.86852 16.7759 7.87565 16.7815 7.88071 16.7854C7.88324 16.7874 7.88525 16.7889 7.88674 16.7901C7.88748 16.7906 7.88809 16.7911 7.88857 16.7915C7.88881 16.7917 7.88901 16.7918 7.88918 16.792C7.88927 16.792 7.88937 16.7921 7.88941 16.7921C7.88951 16.7922 7.88959 16.7923 8.49976 16ZM6.37685 12.4878C6.16386 12.1307 5.90792 11.7566 5.66862 11.4073C5.42191 11.0471 5.18923 10.708 4.98927 10.3809C4.78744 10.0507 4.64508 9.77411 4.56554 9.54859C4.48264 9.31353 4.50302 9.23147 4.50061 9.24115L2.55964 8.75885C2.4279 9.28903 2.53508 9.80457 2.6794 10.2138C2.82709 10.6325 3.05236 11.0469 3.28282 11.424C3.51515 11.804 3.77943 12.1884 4.01861 12.5375C4.26521 12.8975 4.48409 13.2187 4.65911 13.5122L6.37685 12.4878ZM4.50061 9.24115C4.56898 8.96602 4.67638 8.96218 4.62753 8.9774C4.60906 8.98316 4.60187 8.97728 4.62033 8.983C4.6427 8.98993 4.71079 9.01809 4.80872 9.11662L6.22723 7.70672C5.64243 7.11835 4.83741 6.81716 4.03256 7.06795C3.24846 7.31227 2.74994 7.99298 2.55964 8.75885L4.50061 9.24115ZM4.80872 9.11662C5.08399 9.39357 5.31763 9.84192 5.66521 10.4221C5.80679 10.6584 6.00124 10.9715 6.23327 11.2041C6.35201 11.3231 6.54315 11.4863 6.80884 11.5793C7.11387 11.6861 7.46141 11.6792 7.78348 11.5171L6.88469 9.73048C7.07742 9.63353 7.29545 9.63064 7.46984 9.6917C7.60489 9.73899 7.66425 9.80664 7.64911 9.79146C7.61337 9.75564 7.53163 9.64583 7.38086 9.39418C7.14373 8.99838 6.72798 8.21053 6.22723 7.70672L4.80872 9.11662ZM7.78348 11.5171C8.15892 11.3283 8.33526 11.0024 8.41642 10.7983C8.50254 10.5817 8.54091 10.3552 8.55976 10.1615C8.59794 9.7692 8.57351 9.31113 8.52132 8.86483C8.41609 7.96496 8.17333 6.91339 7.88653 6.11987L6.00562 6.79969C6.23616 7.43755 6.44607 8.33788 6.53485 9.09712C6.57967 9.48037 6.58757 9.77866 6.56916 9.96783C6.55972 10.0649 6.54757 10.0854 6.55791 10.0594C6.56328 10.0459 6.63858 9.85429 6.88469 9.73048L7.78348 11.5171ZM7.88653 6.11987C7.65563 5.481 7.41336 4.4562 7.35322 3.62128C7.32216 3.19014 7.34802 2.91007 7.387 2.77734C7.40528 2.71511 7.4043 2.76409 7.32952 2.83907C7.22941 2.93945 7.08267 3 6.94608 3L6.94607 1C6.5453 1 6.18426 1.15518 5.9134 1.42677C5.66788 1.67296 5.53972 1.96972 5.46804 2.21376C5.32712 2.69359 5.32202 3.26008 5.35839 3.76496C5.43309 4.80208 5.71918 6.00717 6.00562 6.79969L7.88653 6.11987ZM6.94607 3C7.04318 3 7.01732 3.01908 6.96504 2.9799C6.93025 2.95383 6.95693 2.95379 7.01883 3.09323C7.08311 3.23804 7.14559 3.43804 7.23387 3.74937C7.31658 4.04106 7.41749 4.41304 7.5505 4.8145L9.44901 4.1855C9.33354 3.83696 9.24809 3.52144 9.15801 3.20376C9.07349 2.90571 8.97675 2.57446 8.84682 2.28177C8.7145 1.98371 8.51199 1.63992 8.16447 1.37947C7.79946 1.10592 7.37733 1 6.94607 1V3ZM7.5505 4.8145C7.74447 5.39996 7.77532 6.12716 7.78929 6.83231C7.79546 7.14385 7.79877 7.51005 7.83275 7.78618C7.84866 7.91555 7.88198 8.13254 7.98184 8.3418C8.08908 8.56654 8.39646 9 8.99672 9L8.99672 7C9.49998 7 9.7346 7.37096 9.78686 7.48046C9.83173 7.57449 9.82781 7.62351 9.81778 7.54195C9.79985 7.3962 9.79635 7.16865 9.7889 6.79269C9.77563 6.12284 9.75201 5.10004 9.44901 4.1855L7.5505 4.8145ZM8.99672 9C9.24842 9 9.52179 8.9415 9.77543 8.78246C10.0273 8.62454 10.1946 8.4083 10.3022 8.19619C10.4981 7.80975 10.5328 7.36278 10.5328 7H8.53279C8.53279 7.128 8.52528 7.21591 8.51623 7.27225C8.50672 7.3315 8.49981 7.32834 8.51834 7.29178C8.54037 7.24835 8.59797 7.16011 8.71291 7.08804C8.82966 7.01483 8.93902 7 8.99672 7L8.99672 9ZM10.5328 7C10.5328 6.97606 10.5352 6.97128 10.533 6.98072C10.5305 6.99122 10.5238 7.01359 10.508 7.04158L8.76645 6.05814C8.59294 6.36541 8.53279 6.69372 8.53279 7H10.5328ZM10.508 7.04158C10.4541 7.13704 10.387 7.14849 10.4437 7.12858C10.5176 7.10261 10.6813 7.0694 10.9846 7.0694V5.0694C10.2465 5.0694 9.25146 5.19927 8.76645 6.05814L10.508 7.04158ZM10.9846 7.0694C10.9356 7.0694 10.8437 7.05456 10.748 6.99291C10.6594 6.93579 10.6202 6.87234 10.6114 6.85665C10.6049 6.84479 10.6152 6.85995 10.6307 6.92241C10.6458 6.98271 10.6595 7.06105 10.6731 7.16455C10.6913 7.30353 10.7244 7.67936 10.7751 7.91159C10.8028 8.03833 10.8611 8.26688 11.0083 8.48189C11.1883 8.74487 11.5176 9 11.9785 9V7C12.3152 7 12.551 7.1948 12.6587 7.3522C12.7336 7.46163 12.7409 7.53935 12.7291 7.4851C12.7008 7.35534 12.7012 7.24852 12.6562 6.90485C12.6238 6.65751 12.5608 6.24731 12.3598 5.88547C12.2506 5.68878 12.0839 5.4745 11.8315 5.31181C11.572 5.14457 11.2798 5.0694 10.9846 5.0694V7.0694ZM11.9785 9C12.0335 9 12.2579 9.00722 12.4408 8.97471C12.5589 8.95371 12.729 8.90798 12.9021 8.79457C13.0857 8.67428 13.2157 8.51557 13.3012 8.35048C13.4413 8.08019 13.4586 7.79012 13.4662 7.64982C13.4758 7.47341 13.4755 7.24786 13.4755 7L11.4755 7C11.4755 7.27264 11.4751 7.43234 11.4692 7.54103C11.4664 7.59261 11.4635 7.60548 11.4651 7.59636C11.4663 7.58981 11.4783 7.52134 11.5255 7.43027C11.58 7.32512 11.6711 7.21008 11.8062 7.12158C11.9307 7.03997 12.0425 7.01415 12.0908 7.00557C12.1343 6.99785 12.156 6.99929 12.1234 6.99991C12.0884 7.00058 12.0581 7 11.9785 7V9ZM13.4755 7C13.4755 6.9045 13.4809 6.84428 13.4861 6.80998C13.4913 6.77545 13.494 6.78177 13.4811 6.81178C13.4664 6.8458 13.4356 6.90053 13.3799 6.95607C13.3239 7.01189 13.266 7.04552 13.2237 7.0636C13.1861 7.07971 13.1683 7.08038 13.1879 7.07732C13.2077 7.07421 13.2465 7.07014 13.3159 7.06789C13.3851 7.06566 13.4668 7.06567 13.5732 7.06665C13.6737 7.06757 13.7999 7.0694 13.9302 7.0694V5.0694C13.7311 5.0694 13.4523 5.06244 13.2513 5.06894C13.0437 5.07565 12.7361 5.09678 12.4365 5.22504C12.0811 5.3772 11.805 5.64833 11.6449 6.01905C11.5067 6.33925 11.4755 6.68716 11.4755 7L13.4755 7ZM13.9302 7.0694C13.884 7.0694 13.7951 7.05543 13.7018 6.99607C13.6152 6.94099 13.5766 6.87968 13.5681 6.86472C13.5618 6.85367 13.5724 6.86934 13.5887 6.93204C13.6045 6.99269 13.6191 7.07132 13.6339 7.17543C13.6541 7.31747 13.6912 7.69155 13.7481 7.93035C13.7792 8.06041 13.8435 8.29016 13.9988 8.50423C14.1879 8.76494 14.5166 9 14.9603 9V7C15.2746 7 15.5052 7.17473 15.6177 7.32986C15.6964 7.43835 15.7057 7.51727 15.6936 7.46634C15.6642 7.34315 15.6624 7.23458 15.614 6.89397C15.579 6.64763 15.512 6.23784 15.3074 5.8774C15.1961 5.68144 15.0279 5.4693 14.7754 5.30864C14.5162 5.1437 14.2249 5.0694 13.9302 5.0694V7.0694ZM14.9603 9C15.1903 9 15.4643 8.94176 15.7111 8.75606C15.9524 8.57444 16.0728 8.34212 16.1326 8.16692C16.1899 7.99937 16.2057 7.84437 16.2119 7.74634C16.2182 7.64554 16.2169 7.5471 16.2163 7.48981C16.2156 7.41799 16.2156 7.38946 16.2167 7.36833C16.2179 7.34491 16.2186 7.38632 16.1967 7.45611C16.173 7.53148 16.1064 7.69094 15.9364 7.82601C15.7571 7.96845 15.5689 8 15.4572 8V6C15.2213 6 14.9406 6.0628 14.6925 6.25992C14.4536 6.44968 14.3419 6.68727 14.2887 6.85639C14.2373 7.01993 14.2242 7.17071 14.2194 7.26448C14.2144 7.36054 14.2159 7.45701 14.2165 7.51019C14.2171 7.5779 14.2168 7.60446 14.2158 7.62085C14.2146 7.64 14.2147 7.59438 14.24 7.52058C14.2678 7.43913 14.3398 7.28493 14.5085 7.158C14.6826 7.02699 14.8596 7 14.9603 7V9ZM15.4572 8C15.5418 8 15.4964 8.01049 15.4186 7.97616C15.3128 7.92952 15.2676 7.85937 15.2684 7.86089C15.2818 7.88468 15.3336 7.9959 15.378 8.27723C15.4214 8.55222 15.4512 8.9452 15.4512 9.5L17.4512 9.5C17.4512 8.3195 17.3369 7.46031 17.0127 6.88241C16.8272 6.55171 16.5645 6.29574 16.2258 6.14632C15.9151 6.00923 15.6211 6 15.4572 6V8ZM15.4512 9.5C15.4512 10.1063 15.4693 10.5692 15.4834 10.928C15.4982 11.3031 15.5054 11.5128 15.4955 11.6778C15.4873 11.8141 15.4687 11.8826 15.4398 11.95C15.4029 12.0364 15.3294 12.165 15.1525 12.4023L16.756 13.5977C16.967 13.3145 17.1497 13.0381 17.2786 12.7367C17.4157 12.4162 17.4729 12.1139 17.4919 11.7981C17.5092 11.5111 17.4952 11.1873 17.4819 10.8493C17.4679 10.4949 17.4512 10.0648 17.4512 9.5L15.4512 9.5ZM15.1525 12.4023C14.7644 12.9228 14.3917 13.4228 14.116 13.7927C13.9781 13.9777 13.8645 14.1301 13.7854 14.2362C13.7458 14.2893 13.7149 14.3308 13.6938 14.3591C13.6833 14.3732 13.6752 14.384 13.6698 14.3913C13.6671 14.395 13.665 14.3977 13.6636 14.3996C13.6629 14.4005 13.6624 14.4012 13.6621 14.4016C13.6619 14.4019 13.6618 14.402 13.6617 14.4022C13.6617 14.4022 13.6616 14.4023 13.6616 14.4023C13.6616 14.4023 13.6616 14.4023 13.6616 14.4023C13.6616 14.4023 13.6616 14.4023 14.4633 15C15.2651 15.5977 15.2651 15.5977 15.2651 15.5976C15.2651 15.5976 15.2651 15.5976 15.2651 15.5976C15.2651 15.5976 15.2652 15.5975 15.2652 15.5975C15.2653 15.5974 15.2654 15.5972 15.2656 15.597C15.2659 15.5965 15.2664 15.5958 15.2671 15.5949C15.2685 15.593 15.2706 15.5903 15.2733 15.5866C15.2787 15.5794 15.2868 15.5685 15.2973 15.5544C15.3184 15.5262 15.3493 15.4846 15.3889 15.4316C15.468 15.3254 15.5816 15.173 15.7195 14.988C15.9952 14.6182 16.3679 14.1182 16.756 13.5977L15.1525 12.4023ZM14.4633 15C13.4633 15 13.4633 14.9997 13.4633 14.9995C13.4633 14.9994 13.4633 14.9992 13.4633 14.999C13.4633 14.9987 13.4633 14.9984 13.4633 14.9981C13.4633 14.9975 13.4633 14.997 13.4633 14.9965C13.4633 14.9955 13.4633 14.9948 13.4633 14.9943C13.4633 14.9932 13.4633 14.993 13.4633 14.9935C13.4633 14.9945 13.4632 14.9985 13.463 15.0049C13.4625 15.0181 13.4614 15.0401 13.4589 15.0677C13.4536 15.1277 13.444 15.1916 13.4304 15.2424C13.4134 15.3063 13.4088 15.28 13.4574 15.2192C13.4871 15.1821 13.5434 15.1241 13.6338 15.0756C13.7292 15.0245 13.8333 15 13.9302 15V17C14.4292 17 14.797 16.7464 15.0194 16.4683C15.218 16.22 15.3133 15.9437 15.3629 15.7576C15.416 15.5584 15.4397 15.3723 15.4511 15.2448C15.4569 15.1787 15.46 15.1226 15.4615 15.081C15.4623 15.0601 15.4628 15.0426 15.463 15.029C15.4631 15.0222 15.4632 15.0163 15.4633 15.0115C15.4633 15.009 15.4633 15.0069 15.4633 15.005C15.4633 15.004 15.4633 15.0031 15.4633 15.0023C15.4633 15.0019 15.4633 15.0015 15.4633 15.0011C15.4633 15.0009 15.4633 15.0006 15.4633 15.0005C15.4633 15.0003 15.4633 15 14.4633 15ZM13.9302 15C14.1321 15 14.2383 15.1002 14.2147 15.0802C14.1785 15.0496 14.1349 14.9997 14.0018 14.8459C13.8985 14.7265 13.7228 14.5229 13.5005 14.3561C13.2609 14.1766 12.9167 14 12.4755 14V16C12.3576 16 12.2902 15.9484 12.3008 15.9564C12.3285 15.9771 12.3761 16.0235 12.4891 16.1541C12.5722 16.2503 12.7377 16.4504 12.9232 16.6073C13.1213 16.7748 13.4618 17 13.9302 17V15ZM12.4755 14C11.6149 14 11.1053 14.645 10.9054 14.943C10.7824 15.1265 10.6933 15.3029 10.6357 15.4296C10.6062 15.4943 10.5834 15.5496 10.5672 15.5909C10.559 15.6117 10.5524 15.6291 10.5474 15.6427C10.5448 15.6496 10.5427 15.6555 10.541 15.6603C10.5401 15.6628 10.5393 15.665 10.5386 15.6669C10.5383 15.6679 10.538 15.6688 10.5377 15.6696C10.5375 15.6701 10.5374 15.6705 10.5373 15.6709C10.5372 15.671 10.5371 15.6713 10.5371 15.6714C10.537 15.6717 10.5369 15.672 11.4815 16C12.4262 16.328 12.4261 16.3283 12.426 16.3286C12.426 16.3286 12.4259 16.3289 12.4258 16.3291C12.4257 16.3294 12.4256 16.3297 12.4255 16.33C12.4253 16.3306 12.4251 16.3311 12.4249 16.3316C12.4246 16.3326 12.4243 16.3334 12.4241 16.3339C12.4237 16.335 12.4236 16.3353 12.4238 16.3348C12.4242 16.3338 12.4257 16.3298 12.4283 16.3232C12.4335 16.3098 12.4429 16.2869 12.4561 16.2579C12.4838 16.1971 12.5219 16.1235 12.5665 16.057C12.5883 16.0245 12.6082 15.9988 12.6252 15.9796C12.6425 15.9601 12.652 15.9527 12.652 15.9527C12.6505 15.9539 12.5865 16 12.4755 16V14ZM11.4815 15H8.49976V17H11.4815V15ZM15.4633 14V10H13.4633V14H15.4633ZM14.4633 9H13.4694V11H14.4633V9ZM12.4694 10V14H14.4694V10H12.4694ZM13.4694 15H14.4633V13H13.4694V15ZM10.4815 13C10.4815 13.3159 10.588 13.7033 10.7084 13.9894C10.7725 14.1419 10.87 14.3375 11.0129 14.5131C11.1268 14.6531 11.448 15 11.9785 15V13C12.1815 13 12.3341 13.0708 12.4218 13.1272C12.5053 13.1809 12.5504 13.2338 12.564 13.2506C12.5888 13.281 12.5786 13.2774 12.5518 13.2138C12.529 13.1594 12.5079 13.0943 12.4936 13.0352C12.4867 13.0066 12.4829 12.9856 12.4811 12.9736C12.4788 12.9583 12.4815 12.9691 12.4815 13H10.4815ZM11.9785 15C12.5006 15 12.8216 14.6667 12.944 14.518C13.0904 14.3402 13.1887 14.1421 13.2528 13.9883C13.3744 13.6969 13.4755 13.3121 13.4755 13H11.4755C11.4755 12.9599 11.4797 12.9727 11.4631 13.043C11.4492 13.102 11.4289 13.1658 11.407 13.2183C11.3812 13.2801 11.3724 13.2803 11.3999 13.247C11.4151 13.2284 11.4616 13.1751 11.5462 13.1219C11.6356 13.0656 11.7843 13 11.9785 13V15ZM13.4755 13V11H11.4755V13H13.4755ZM13.4755 11C13.4755 10.6841 13.369 10.2967 13.2486 10.0106C13.1845 9.8581 13.087 9.66248 12.9441 9.48691C12.8302 9.34687 12.509 9 11.9785 9V11C11.7755 11 11.6229 10.9292 11.5352 10.8728C11.4517 10.8191 11.4066 10.7662 11.393 10.7494C11.3682 10.719 11.3784 10.7226 11.4052 10.7862C11.428 10.8406 11.4491 10.9057 11.4634 10.9648C11.4703 10.9934 11.4741 11.0144 11.4759 11.0264C11.4782 11.0417 11.4755 11.0309 11.4755 11H13.4755ZM11.9785 9C11.4564 9 11.1354 9.33325 11.013 9.482C10.8666 9.65977 10.7683 9.85794 10.7042 10.0117C10.5826 10.3031 10.4815 10.6879 10.4815 11H12.4815C12.4815 11.0401 12.4773 11.0273 12.4939 10.957C12.5078 10.898 12.5281 10.8342 12.55 10.7817C12.5758 10.7199 12.5846 10.7197 12.5571 10.753C12.5419 10.7716 12.4954 10.8249 12.4108 10.8781C12.3214 10.9344 12.1726 11 11.9785 11V9ZM10.4815 11V13H12.4815V11H10.4815ZM8.49368 13C8.49368 13.3159 8.60012 13.7033 8.72051 13.9894C8.78467 14.1419 8.88211 14.3375 9.02501 14.5131C9.13899 14.6531 9.46015 15 9.99064 15V13C10.1937 13 10.3463 13.0708 10.434 13.1272C10.5174 13.1809 10.5625 13.2338 10.5762 13.2506C10.6009 13.281 10.5908 13.2774 10.564 13.2138C10.5411 13.1594 10.5201 13.0943 10.5058 13.0352C10.4989 13.0066 10.495 12.9856 10.4932 12.9736C10.4909 12.9583 10.4937 12.9691 10.4937 13H8.49368ZM9.99064 15C10.5127 15 10.8337 14.6667 10.9562 14.518C11.1025 14.3402 11.2008 14.1421 11.265 13.9883C11.3865 13.6969 11.4876 13.3121 11.4876 13H9.48761C9.48761 12.9599 9.4918 12.9727 9.47524 13.043C9.46132 13.102 9.44101 13.1658 9.41914 13.2183C9.39336 13.2801 9.38458 13.2803 9.412 13.247C9.42726 13.2284 9.47371 13.1751 9.55834 13.1219C9.64778 13.0656 9.79649 13 9.99064 13V15ZM11.4876 13V11H9.48761V13H11.4876ZM11.4876 11C11.4876 10.6841 11.3812 10.2967 11.2608 10.0106C11.1966 9.8581 11.0992 9.66248 10.9563 9.48691C10.8423 9.34687 10.5211 9 9.99064 9V11C9.78764 11 9.63502 10.9292 9.54734 10.8728C9.46386 10.8191 9.41877 10.7662 9.40512 10.7494C9.38038 10.719 9.39053 10.7226 9.4173 10.7862C9.44018 10.8406 9.46121 10.9057 9.47551 10.9648C9.48244 10.9934 9.48629 11.0144 9.48807 11.0264C9.49035 11.0417 9.48761 11.0309 9.48761 11H11.4876ZM9.99064 9C9.46859 9 9.14755 9.33325 9.02512 9.482C8.87879 9.65977 8.78048 9.85794 8.71633 10.0117C8.59477 10.3031 8.49368 10.6879 8.49368 11H10.4937C10.4937 11.0401 10.4895 11.0273 10.506 10.957C10.52 10.898 10.5403 10.8342 10.5621 10.7817C10.5879 10.7199 10.5967 10.7197 10.5693 10.753C10.554 10.7716 10.5076 10.8249 10.423 10.8781C10.3335 10.9344 10.1848 11 9.99064 11V9ZM8.49368 11V13H10.4937V11H8.49368Z" fill="black" mask="url(#path-1-outside-1_69_4141)"/>
</g>
<defs>
<filter id="filter0_d_69_4141" x="0.5" y="0" width="19" height="20" filterUnits="userSpaceOnUse" color-interpolation-filters="sRGB">
<feFlood flood-opacity="0" result="BackgroundImageFix"/>
<feColorMatrix in="SourceAlpha" type="matrix" values="0 0 0 0 0 0 0 0 0 0 0 0 0 0 0 0 0 0 127 0" result="hardAlpha"/>
<feOffset dy="1"/>
<feGaussianBlur stdDeviation="1"/>
<feColorMatrix type="matrix" values="0 0 0 0 0 0 0 0 0 0 0 0 0 0 0 0 0 0 1 0"/>
<feBlend mode="normal" in2="BackgroundImageFix" result="effect1_dropShadow_69_4141"/>
<feBlend mode="normal" in="SourceGraphic" in2="effect1_dropShadow_69_4141" result="shape"/>
</filter>
</defs>
</svg>
